<?xml version='1.0' encoding='utf-8'?>
<svg xmlns="http://www.w3.org/2000/svg" width="200" height="200" viewBox="0 0 52.916666 52.916666" version="1.1" id="svg5"> <defs id="defs2"/> <g id="layer1"> <g id="g115165" transform="rotate(180,46.201862,61.27493)"> <path d="m 62.299863,84.417224 c 0,0 -19.000507,7.915919 -21.873506,18.435436 -3.069985,11.24078 1.720113,18.16011 9.504073,19.49814 6.000117,1.03139 11.858429,-1.96857 12.973449,-8.45519 1.115021,-6.48662 -5.153669,-12.28496 -11.92816,-10.88497 v 0 C 50.250014,95.673931 64.275213,88.373707 64.275213,88.373707 Z" style="font-size:132.292px;font-family:'Liberation Serif';-inkscape-font-specification:'Noto Sans CJK HK';fill:#174894;fill-opacity:1;stroke:none;stroke-width:0.329087;stroke-opacity:1" id="path31770-0-9"/> <path d="m 90.428375,84.417221 c 0,0 -19.000506,7.915922 -21.873505,18.435439 -3.069985,11.24078 1.720112,18.16011 9.504073,19.49814 6.000116,1.03139 11.858429,-1.96857 12.973449,-8.45519 1.115021,-6.48662 -5.153669,-12.28496 -11.92816,-10.88497 v 0 C 78.378527,95.673931 92.403725,88.373707 92.403725,88.373707 Z" style="font-size:132.292px;font-family:'Liberation Serif';-inkscape-font-specification:'Noto Sans CJK HK';fill:#174894;fill-opacity:1;stroke:none;stroke-width:0.329087;stroke-opacity:1" id="path31770-0-8-6"/> </g> </g> </svg>